<svg xmlns="http://www.w3.org/2000/svg" viewBox="0 0 1528.46 491"><defs><style>.cls-1{fill:gray;}.cls-2{fill:#f9e8f9;}.cls-3{fill:#666;}.cls-4{font-size:248.78px;font-family:Righteous-Regular, Righteous;}.cls-5{letter-spacing:-0.03em;}.cls-6{fill:none;stroke:#000;stroke-miterlimit:10;stroke-width:40px;}.cls-7{fill:#fff;}</style></defs><g id="Layer_2" data-name="Layer 2"><g id="Layer_1-2" data-name="Layer 1"><path class="cls-1" d="M565.05,306.5c0,150.22-122.28,162.5-272.5,162.5h-.05C142.28,469,20,456.72,20,306.5q0-8.94.57-17.8A293.47,293.47,0,0,1,59.54,161a79,79,0,0,1-12-11.88c-19-22.87-33.44-60.74-25.11-85.3A33.85,33.85,0,0,1,27.55,54C48.35,26.8,108,42,135.22,62.75a62.3,62.3,0,0,1,7.06,6.35C185.07,38.4,236.33,20,291.5,20h2.05C348.72,20,400,38.4,442.76,69.1l.81-.83a62.67,62.67,0,0,1,6.26-5.52C477,42,536.69,26.8,557.5,54a33.85,33.85,0,0,1,5.14,9.8c8.32,24.55-6.14,62.42-25.11,85.29a78.85,78.85,0,0,1-12,11.84l-.06,0a293.48,293.48,0,0,1,39,127.72Q565.05,297.55,565.05,306.5Z"/><path class="cls-2" d="M565.05,271.5q0,8.92-.57,17.2C555.32,422.67,436.82,434,292.55,434h-.05C148.23,434,29.73,422.67,20.57,288.7Q20,280.42,20,271.5A289.77,289.77,0,0,1,47.52,149.1q5.5-11.83,12-23.12C43.62,113.61,28.2,88.18,22.41,63.8A33.85,33.85,0,0,1,27.55,54C48.35,26.8,108,42,135.22,62.75a62.3,62.3,0,0,1,7.06,6.35C185.07,38.4,236.33,20,291.5,20h2.05C348.72,20,400,38.4,442.76,69.1l.81-.83a62.67,62.67,0,0,1,6.26-5.52C477,42,536.69,26.8,557.5,54a33.85,33.85,0,0,1,5.14,9.8c-5.8,24.37-21.22,49.81-37.14,62.18q6.51,11.27,12,23.11,2.51,5.35,4.79,10.83A288.72,288.72,0,0,1,565.05,271.5Z"/><path class="cls-3" d="M537.53,149.09q2.51,5.35,4.79,10.83A85.27,85.27,0,0,1,528.76,161c-1.07,0-2.14,0-3.2-.07a85.48,85.48,0,0,1-82.3-85.43q0-3.66.31-7.23a62.67,62.67,0,0,1,6.26-5.52C477,42,536.69,26.8,557.5,54a33.85,33.85,0,0,1,5.14,9.8C571,88.35,556.5,126.22,537.53,149.09Z"/><path class="cls-3" d="M47.77,149.09q-2.51,5.35-4.79,10.83A85.27,85.27,0,0,0,56.54,161c1.07,0,2.14,0,3.2-.07A85.48,85.48,0,0,0,142,75.5q0-3.66-.31-7.23a62.67,62.67,0,0,0-6.26-5.52C108.27,42,48.61,26.8,27.8,54a33.85,33.85,0,0,0-5.14,9.8C14.34,88.35,28.8,126.22,47.77,149.09Z"/><ellipse class="cls-3" cx="408.67" cy="249.04" rx="86.54" ry="114.58" transform="translate(-63.2 169.24) rotate(-21.76)"/><ellipse class="cls-3" cx="177.67" cy="249.04" rx="114.58" ry="86.54" transform="translate(-119.49 321.72) rotate(-68.24)"/><text class="cls-4" transform="translate(599.84 220.48)">Panda</text><text class="cls-4" transform="translate(736.46 427.1)"><tspan class="cls-5">K</tspan><tspan x="147.23" y="0">oding</tspan></text><path class="cls-6" d="M565.05,306.5c0,150.22-122.28,162.5-272.5,162.5h-.05C142.28,469,20,456.72,20,306.5q0-8.94.57-17.8A293.47,293.47,0,0,1,59.54,161a79,79,0,0,1-12-11.88c-19-22.87-33.44-60.74-25.11-85.3A33.85,33.85,0,0,1,27.55,54C48.35,26.8,108,42,135.22,62.75a62.3,62.3,0,0,1,7.06,6.35C185.07,38.4,236.33,20,291.5,20h2.05C348.72,20,400,38.4,442.76,69.1l.81-.83a62.67,62.67,0,0,1,6.26-5.52C477,42,536.69,26.8,557.5,54a33.85,33.85,0,0,1,5.14,9.8c8.32,24.55-6.14,62.42-25.11,85.29a78.85,78.85,0,0,1-12,11.84l-.06,0a293.48,293.48,0,0,1,39,127.72Q565.05,297.55,565.05,306.5Z"/><circle cx="402.26" cy="234" r="76"/><circle cx="182.26" cy="234" r="76"/><circle class="cls-7" cx="416.76" cy="193.5" r="18.5"/><circle class="cls-7" cx="437.76" cy="217.5" r="5.5"/><circle class="cls-7" cx="222.76" cy="201.5" r="18.5"/><circle class="cls-7" cx="243.76" cy="225.5" r="5.5"/><ellipse cx="292.76" cy="298.48" rx="27.5" ry="17.52"/><path d="M286.76,295v43.55c0,5.43-.55,11.18,0,16.59.57,5.6,7.65,10.1,11.95,12.71,12.62,7.68,27.65,8.42,41.65,4.44,7.41-2.12,4.26-13.7-3.2-11.58-13.92,4-30.79,2-40.16-9.76l1.76,4.25V295c0-7.72-12-7.73-12,0Z"/><path d="M286.76,295v60.2l1.76-4.25c-9.38,11.73-26.24,13.73-40.16,9.76-7.45-2.11-10.62,9.46-3.2,11.58,12.89,3.67,26.33,3.33,38.45-2.67,4.92-2.43,10.7-6.12,13.86-10.79,2.79-4.11,1.29-12.16,1.29-16.8V295c0-7.72-12-7.73-12,0Z"/></g></g></svg>